<svg xmlns="http://www.w3.org/2000/svg" version="1.1" xmlns:xlink="http://www.w3.org/1999/xlink" xmlns:svgjs="http://svgjs.com/svgjs" width="1440" height="560" preserveAspectRatio="none" viewBox="0 0 1440 560">
    <g mask="url(&quot;#SvgjsMask1627&quot;)" fill="none">
        <rect width="1440" height="560" x="0" y="0" fill="url(#SvgjsLinearGradient1628)"></rect>
        <path d="M1440 0L1068.8600000000001 0L1440 72.84z" fill="rgba(255, 255, 255, .1)"></path>
        <path d="M1068.8600000000001 0L1440 72.84L1440 341.78L831.1100000000001 0z" fill="rgba(255, 255, 255, .075)"></path>
        <path d="M831.11 0L1440 341.78L1440 410.23999999999995L727.03 0z" fill="rgba(255, 255, 255, .05)"></path>
        <path d="M727.03 0L1440 410.23999999999995L1440 421.99999999999994L548.12 0z" fill="rgba(255, 255, 255, .025)"></path>
        <path d="M0 560L537.29 560L0 434.12z" fill="rgba(0, 0, 0, .1)"></path>
        <path d="M0 434.12L537.29 560L637.0899999999999 560L0 425.78000000000003z" fill="rgba(0, 0, 0, .075)"></path>
        <path d="M0 425.78L637.0899999999999 560L1001.75 560L0 361.65999999999997z" fill="rgba(0, 0, 0, .05)"></path>
        <path d="M0 361.65999999999997L1001.75 560L1201.21 560L0 321.95z" fill="rgba(0, 0, 0, .025)"></path>
    </g>
    <defs>
        <mask id="SvgjsMask1627">
            <rect width="1440" height="560" fill="#ffffff"></rect>
        </mask>
        <linearGradient x1="15.28%" y1="139.29%" x2="84.72%" y2="-39.29%" gradientUnits="userSpaceOnUse" id="SvgjsLinearGradient1628">
            <stop stop-color="#0e2a47" offset="0"></stop>
            <stop stop-color="rgba(4, 197, 153, 1)" offset="0.74"></stop>
        </linearGradient>
    </defs>
</svg>