<svg xmlns="http://www.w3.org/2000/svg" version="1.1" xmlns:xlink="http://www.w3.org/1999/xlink" xmlns:svgjs="http://svgjs.com/svgjs" width="1800" height="900" preserveAspectRatio="none" viewBox="0 0 1800 900">
    <g mask="url(&quot;#SvgjsMask1651&quot;)" fill="none">
        <rect width="1800" height="900" x="0" y="0" fill="url(#SvgjsLinearGradient1652)"></rect>
        <path d="M1800 0L1282.9299999999998 0L1800 305.73z" fill="rgba(255, 255, 255, .1)"></path>
        <path d="M1282.9299999999998 0L1800 305.73L1800 423.65000000000003L1066.7299999999998 0z" fill="rgba(255, 255, 255, .075)"></path>
        <path d="M1066.73 0L1800 423.65000000000003L1800 488.16L647.86 0z" fill="rgba(255, 255, 255, .05)"></path>
        <path d="M647.8600000000001 0L1800 488.16L1800 556.28L586.2800000000001 0z" fill="rgba(255, 255, 255, .025)"></path>
        <path d="M0 900L728.5 900L0 555.8z" fill="rgba(0, 0, 0, .1)"></path>
        <path d="M0 555.8L728.5 900L1124.22 900L0 547.51z" fill="rgba(0, 0, 0, .075)"></path>
        <path d="M0 547.51L1124.22 900L1428.78 900L0 338.63z" fill="rgba(0, 0, 0, .05)"></path>
        <path d="M0 338.63L1428.78 900L1597.06 900L0 132.82z" fill="rgba(0, 0, 0, .025)"></path>
    </g>
    <defs>
        <mask id="SvgjsMask1651">
            <rect width="1800" height="900" fill="#ffffff"></rect>
        </mask>
        <linearGradient x1="12.5%" y1="125%" x2="87.5%" y2="-25%" gradientUnits="userSpaceOnUse" id="SvgjsLinearGradient1652">
            <stop stop-color="#0e2a47" offset="0"></stop>
            <stop stop-color="rgba(4, 197, 153, 1)" offset="0.74"></stop>
        </linearGradient>
    </defs>
</svg>